<svg width="277" height="71" viewBox="0 0 277 71" fill="none" xmlns="http://www.w3.org/2000/svg">
<path d="M24.7485 60.1041L60.1039 24.7488C65.9617 30.6067 65.9617 40.1041 60.1039 45.962L35.3551 70.7107L24.7485 60.1041Z" fill="#008DB9"/>
<rect x="12.3745" y="47.7296" width="50" height="15" transform="rotate(-45 12.3745 47.7296)" fill="#008DB9"/>
<path d="M10.6066 45.9619C4.74873 40.1041 4.74874 30.6066 10.6066 24.7487L35.3553 1.9015e-05L45.9619 10.6066L10.6066 45.9619Z" fill="#008DB9"/>
<path d="M85.1904 57.8553V13.0553H106.374C111.324 13.0553 115.676 13.9727 119.43 15.8073C123.185 17.642 126.108 20.2233 128.198 23.5513C130.332 26.8793 131.398 30.8473 131.398 35.4553C131.398 40.0207 130.332 43.9887 128.198 47.3593C126.108 50.6873 123.185 53.2687 119.43 55.1033C115.676 56.938 111.324 57.8553 106.374 57.8553H85.1904ZM97.8624 47.7433H105.862C108.422 47.7433 110.641 47.274 112.518 46.3353C114.438 45.354 115.932 43.946 116.998 42.1113C118.065 40.234 118.598 38.0153 118.598 35.4553C118.598 32.8527 118.065 30.634 116.998 28.7993C115.932 26.9647 114.438 25.578 112.518 24.6393C110.641 23.658 108.422 23.1673 105.862 23.1673H97.8624V47.7433ZM132.064 57.8553L151.84 13.0553H164.32L184.16 57.8553H170.976L155.488 19.2633H160.48L144.992 57.8553H132.064ZM142.88 49.1513L146.144 39.8073H168.032L171.296 49.1513H142.88ZM203.497 58.7513C199.828 58.7513 196.286 58.3033 192.873 57.4073C189.502 56.4687 186.75 55.274 184.617 53.8233L188.777 44.4793C190.782 45.7593 193.086 46.826 195.689 47.6793C198.334 48.49 200.958 48.8953 203.561 48.8953C205.31 48.8953 206.718 48.746 207.785 48.4473C208.852 48.106 209.62 47.6793 210.089 47.1673C210.601 46.6127 210.857 45.9727 210.857 45.2473C210.857 44.2233 210.388 43.4127 209.449 42.8153C208.51 42.218 207.294 41.7273 205.801 41.3433C204.308 40.9593 202.644 40.5753 200.809 40.1913C199.017 39.8073 197.204 39.3167 195.369 38.7193C193.577 38.122 191.934 37.354 190.441 36.4153C188.948 35.434 187.732 34.1753 186.793 32.6393C185.854 31.0607 185.385 29.0767 185.385 26.6873C185.385 23.9993 186.11 21.5673 187.561 19.3913C189.054 17.2153 191.273 15.466 194.217 14.1433C197.161 12.8207 200.83 12.1593 205.225 12.1593C208.169 12.1593 211.049 12.5007 213.865 13.1833C216.724 13.8233 219.262 14.7833 221.481 16.0633L217.577 25.4713C215.444 24.3193 213.332 23.466 211.241 22.9113C209.15 22.314 207.124 22.0153 205.161 22.0153C203.412 22.0153 202.004 22.2073 200.937 22.5913C199.87 22.9327 199.102 23.402 198.633 23.9993C198.164 24.5967 197.929 25.2793 197.929 26.0473C197.929 27.0287 198.377 27.818 199.273 28.4153C200.212 28.97 201.428 29.4393 202.921 29.8233C204.457 30.1647 206.121 30.5273 207.913 30.9113C209.748 31.2953 211.561 31.786 213.353 32.3833C215.188 32.938 216.852 33.706 218.345 34.6873C219.838 35.626 221.033 36.8847 221.929 38.4633C222.868 39.9993 223.337 41.9407 223.337 44.2873C223.337 46.89 222.59 49.3007 221.097 51.5193C219.646 53.6953 217.449 55.4447 214.505 56.7673C211.604 58.09 207.934 58.7513 203.497 58.7513ZM259.142 13.0553H271.814V57.8553H259.142V13.0553ZM241.862 57.8553H229.19V13.0553H241.862V57.8553ZM260.038 40.3833H240.966V29.8873H260.038V40.3833Z" fill="black"/>
</svg>
